<svg width="60" height="59" viewBox="0 0 60 59" fill="none" xmlns="http://www.w3.org/2000/svg">
<path d="M29.9136 16.9294C36.9306 15.4082 44.0458 15.1874 51.0873 16.3406C46.7446 9.47074 39.0897 4.90723 30.3552 4.90723C22.7248 4.90723 15.9041 8.3912 11.3896 13.8625C12.4692 17.0521 13.8432 20.0944 15.487 22.9896C16.4193 24.6579 18.7992 24.5843 19.7561 22.9405C21.8416 19.432 25.5954 17.0766 29.9136 16.9294Z" fill="#028A4C"/>
<path d="M19.8548 36.1164C14.9478 30.8659 11.1203 24.8793 8.49504 18.2549C4.81478 25.5173 4.83932 34.4235 9.32923 41.9067C13.2548 48.4575 19.7321 52.5303 26.7491 53.5853C28.9327 51.0092 30.8465 48.2612 32.4903 45.3906C33.4472 43.7223 32.1468 41.7349 30.2331 41.7349C26.1357 41.7595 22.1856 39.7476 19.8548 36.1164Z" fill="#028A4C"/>
<path d="M21.9414 29.4419C21.9414 30.9385 22.3094 32.337 23.07 33.6619C24.5667 36.2381 27.3391 37.8574 30.3324 37.8574C33.3257 37.8574 36.1227 36.2381 37.5948 33.6619C38.3553 32.337 38.7479 30.9385 38.7479 29.4419C38.7479 24.8048 34.9695 21.0509 30.3324 21.0509C25.7198 21.0264 21.9414 24.8048 21.9414 29.4419Z" fill="#028A4C"/>
<path d="M53.2722 20.6592C49.9109 19.9477 46.5005 19.5551 43.1147 19.5061C41.1764 19.4815 40.0723 21.5915 41.0292 23.2845C42.0106 25.0265 42.5749 27.0383 42.5749 29.1729C42.5749 31.2338 42.0351 33.2702 41.0292 35.0858C38.7229 42.1519 35.288 48.4329 30.749 53.9778C44.1206 53.757 54.8915 42.8634 54.8915 29.4428C54.8915 26.3513 54.3272 23.3826 53.2722 20.6592Z" fill="#028A4C"/>
</svg>
