<svg width="67" height="66" viewBox="0 0 67 66" fill="none" xmlns="http://www.w3.org/2000/svg">
<path d="M41.8111 62.3092C41.0749 62.3092 40.3933 61.9003 40.0389 61.2732C39.6844 60.6189 39.6844 59.8555 40.0661 59.2011L42.9289 54.4299C43.5014 53.4484 44.7828 53.1485 45.7371 53.721C46.7186 54.2936 47.0185 55.5477 46.446 56.5292L45.7098 57.7561C53.2347 55.9839 58.8784 49.2224 58.8784 41.1522C58.8784 40.0344 59.8054 39.1074 60.9232 39.1074C62.0411 39.1074 62.968 40.0344 62.968 41.1522C62.9408 52.8213 53.4529 62.3092 41.8111 62.3092Z" fill="#028A4C"/>
<path d="M6.36708 26.8659C5.24925 26.8659 4.32227 25.939 4.32227 24.8211C4.32227 13.1793 13.8102 3.69141 25.452 3.69141C26.1881 3.69141 26.8697 4.10037 27.2242 4.72744C27.5786 5.38178 27.5786 6.14518 27.1969 6.79952L24.3342 11.5708C23.7616 12.525 22.5075 12.8522 21.526 12.2524C20.5717 11.6798 20.2445 10.4257 20.8444 9.44415L21.5805 8.21726C14.0283 9.98943 8.41189 16.7509 8.41189 24.8211C8.41189 25.939 7.48491 26.8659 6.36708 26.8659Z" fill="#028A4C"/>
<path d="M41.2648 34.7178V42.7335C41.2648 49.4132 38.5929 52.0851 31.9132 52.0851H23.8975C17.2178 52.0851 14.5459 49.4132 14.5459 42.7335V34.7178C14.5459 28.0381 17.2178 25.3662 23.8975 25.3662H31.9132C38.5929 25.3662 41.2648 28.0381 41.2648 34.7178Z" fill="#028A4C"/>
<path d="M43.3644 13.915H35.3488C28.7781 13.915 26.1062 16.5324 26.0244 22.9667H31.9135C39.9291 22.9667 43.6371 26.7019 43.6371 34.6903V40.5794C50.0987 40.4976 52.6888 37.8257 52.6888 31.255V23.2666C52.716 16.5869 50.0441 13.915 43.3644 13.915Z" fill="#028A4C"/>
</svg>
