<svg width="22" height="23" viewBox="0 0 22 23" fill="none" xmlns="http://www.w3.org/2000/svg">
<path d="M21.7861 9.34565H20.9V9.3H11V13.7H17.2167C16.3097 16.2614 13.8727 18.1 11 18.1C7.35515 18.1 4.4 15.1448 4.4 11.5C4.4 7.85515 7.35515 4.9 11 4.9C12.6825 4.9 14.2131 5.5347 15.3786 6.57145L18.4899 3.4601C16.5253 1.62915 13.8974 0.5 11 0.5C4.92525 0.5 0 5.42525 0 11.5C0 17.5748 4.92525 22.5 11 22.5C17.0748 22.5 22 17.5748 22 11.5C22 10.7625 21.9241 10.0425 21.7861 9.34565Z" fill="#FFC107"/>
<path d="M1.26758 6.38005L4.88163 9.0305C5.85953 6.6094 8.22783 4.9 10.9993 4.9C12.6817 4.9 14.2124 5.5347 15.3778 6.57145L18.4892 3.4601C16.5246 1.62915 13.8967 0.5 10.9993 0.5C6.77418 0.5 3.11008 2.88535 1.26758 6.38005Z" fill="#FF3D00"/>
<path d="M10.9998 22.4998C13.8411 22.4998 16.4228 21.4124 18.3747 19.6442L14.9702 16.7633C13.8658 17.5998 12.493 18.0998 10.9998 18.0998C8.13868 18.0998 5.70933 16.2754 4.79413 13.7295L1.20703 16.4932C3.02753 20.0556 6.72463 22.4998 10.9998 22.4998Z" fill="#4CAF50"/>
<path d="M21.786 9.34545H20.9V9.2998H11V13.6998H17.2167C16.7811 14.9302 15.9896 15.9911 14.9688 16.7639C14.9693 16.7633 14.9699 16.7633 14.9704 16.7628L18.375 19.6437C18.1341 19.8626 22 16.9998 22 11.4998C22 10.7623 21.9241 10.0423 21.786 9.34545Z" fill="#1976D2"/>
</svg>
