<svg width="60" height="59" viewBox="0 0 60 59" fill="none" xmlns="http://www.w3.org/2000/svg">
<path d="M48.448 12.0009L34.0673 5.59589C31.9568 4.66335 28.7666 4.66335 26.6561 5.59589L12.2754 12.0009C8.64341 13.6206 8.10352 15.8292 8.10352 17.0072C8.10352 18.1851 8.64341 20.3938 12.2754 22.0134L26.6561 28.4185C27.7113 28.8848 29.0365 29.1302 30.3617 29.1302C31.6869 29.1302 33.0121 28.8848 34.0673 28.4185L48.448 22.0134C52.08 20.3938 52.6199 18.1851 52.6199 17.0072C52.6199 15.8292 52.1045 13.6206 48.448 12.0009Z" fill="#028A4C"/>
<path d="M30.3635 41.8173C29.431 41.8173 28.4985 41.6209 27.6396 41.2528L11.0993 33.8907C8.57163 32.7618 6.6084 29.7434 6.6084 26.9703C6.6084 25.9641 7.41823 25.1543 8.42439 25.1543C9.43055 25.1543 10.2404 25.9641 10.2404 26.9703C10.2404 28.2955 11.3447 30.0133 12.5717 30.5532L29.112 37.9153C29.8973 38.2589 30.8053 38.2589 31.5906 37.9153L48.1308 30.5532C49.3578 30.0133 50.4622 28.32 50.4622 26.9703C50.4622 25.9641 51.272 25.1543 52.2781 25.1543C53.2843 25.1543 54.0941 25.9641 54.0941 26.9703C54.0941 29.7188 52.1309 32.7618 49.6032 33.8907L33.063 41.2528C32.2286 41.6209 31.2961 41.8173 30.3635 41.8173Z" fill="#028A4C"/>
<path d="M30.3635 53.9891C29.431 53.9891 28.4985 53.7928 27.6396 53.4247L11.0993 46.0626C8.37531 44.8601 6.6084 42.1361 6.6084 39.1422C6.6084 38.136 7.41823 37.3262 8.42439 37.3262C9.43055 37.3262 10.2404 38.136 10.2404 39.1422C10.2404 40.6882 11.1484 42.087 12.5717 42.7251L29.112 50.0872C29.8973 50.4308 30.8053 50.4308 31.5906 50.0872L48.1308 42.7251C49.5296 42.1116 50.4622 40.6882 50.4622 39.1422C50.4622 38.136 51.272 37.3262 52.2781 37.3262C53.2843 37.3262 54.0941 38.136 54.0941 39.1422C54.0941 42.1361 52.3272 44.8355 49.6032 46.0626L33.063 53.4247C32.2286 53.7928 31.2961 53.9891 30.3635 53.9891Z" fill="#028A4C"/>
</svg>
