<svg width="150" height="62" viewBox="0 0 150 62" fill="none" xmlns="http://www.w3.org/2000/svg">
<path d="M43.2119 40.5605V13.8177H47.6254L59.5943 13.7803C64.4317 13.7803 68.1844 14.9148 70.8524 17.1839C73.5205 19.453 74.8545 22.7819 74.8545 27.1704C74.8545 31.559 73.5205 34.8878 70.8524 37.1569C68.1844 39.426 64.4317 40.5605 59.5943 40.5605H43.2119ZM59.1828 18.6426H49.1963V35.6982H59.1828C62.3246 35.6982 64.7059 35.0125 66.3267 33.6411C67.9475 32.2696 68.7579 30.1128 68.7579 27.1704C68.7579 24.2032 67.9475 22.0463 66.3267 20.6998C64.7059 19.3284 62.3246 18.6426 59.1828 18.6426ZM78.6056 40.5605V13.8177H101.01C103.778 13.8177 105.922 14.5159 107.443 15.9123C108.989 17.3086 109.762 19.4281 109.762 22.2707C109.762 25.1133 108.989 27.2328 107.443 28.6291C105.922 30.0255 103.778 30.7237 101.01 30.7237H84.59V40.5605H78.6056ZM100.299 18.68H84.59V25.8239L100.299 25.8613C101.396 25.8613 102.232 25.587 102.805 25.0385C103.403 24.4899 103.703 23.5673 103.703 22.2707C103.703 20.9491 103.403 20.0265 102.805 19.5029C102.232 18.9543 101.396 18.68 100.299 18.68ZM113.488 40.5605V13.8177H119.472V24.7767H138.323V13.8177H144.308V40.5605H138.323V29.639H119.472V40.5605H113.488Z" fill="#028A4C"/>
<path d="M5.36909 20.7457L14.5156 11.7574L27.3389 11.8693L36.3272 21.0158L36.2153 33.8391L27.0688 42.8274L14.2455 42.7155L5.25718 33.569L5.36909 20.7457Z" fill="#028A4C" stroke="#028A4C" stroke-width="1.39189"/>
<path d="M15.1274 14.2784L25.8472 14.3719L33.3612 22.0182L33.2676 32.738L25.6214 40.2519L14.9015 40.1584L7.38762 32.5122L7.48117 21.7923L15.1274 14.2784Z" fill="white"/>
<path d="M16.4198 17.5081L24.4596 17.5783L30.0951 23.3129L30.0249 31.3528L24.2902 36.9883L16.2504 36.9181L10.6149 31.1834L10.6851 23.1436L16.4198 17.5081Z" fill="#028A4C"/>
<path d="M17.7434 20.771L23.1033 20.8178L26.8603 24.6409L26.8135 30.0008L22.9904 33.7578L17.6305 33.711L13.8735 29.8879L13.9203 24.528L17.7434 20.771Z" fill="white"/>
<path d="M19.0436 23.9949L21.7235 24.0183L23.602 25.9298L23.5786 28.6098L21.6671 30.4883L18.9871 30.4649L17.1086 28.5533L17.132 25.8734L19.0436 23.9949Z" fill="white"/>
<path d="M19.7093 25.6351L21.0493 25.6468L21.9885 26.6026L21.9768 27.9426L21.021 28.8818L19.6811 28.8701L18.7418 27.9144L18.7535 26.5744L19.7093 25.6351Z" fill="#028A4C"/>
<path d="M10.052 58.5V57.108H11.156V51.492H10.052V50.1H13.508C14.636 50.1 15.492 50.388 16.076 50.964C16.668 51.532 16.964 52.38 16.964 53.508V55.092C16.964 56.22 16.668 57.072 16.076 57.648C15.492 58.216 14.636 58.5 13.508 58.5H10.052ZM12.74 57.06H13.532C14.172 57.06 14.64 56.892 14.936 56.556C15.232 56.22 15.38 55.748 15.38 55.14V53.46C15.38 52.844 15.232 52.372 14.936 52.044C14.64 51.708 14.172 51.54 13.532 51.54H12.74V57.06ZM18.2842 58.5V50.1H19.8682V58.5H18.2842ZM24.3523 58.668C23.7763 58.668 23.2523 58.54 22.7803 58.284C22.3163 58.02 21.9443 57.64 21.6643 57.144C21.3923 56.64 21.2563 56.028 21.2563 55.308V53.292C21.2563 52.212 21.5603 51.384 22.1683 50.808C22.7763 50.224 23.6003 49.932 24.6403 49.932C25.6723 49.932 26.4683 50.208 27.0283 50.76C27.5963 51.304 27.8803 52.044 27.8803 52.98V53.028H26.3203V52.932C26.3203 52.636 26.2563 52.368 26.1283 52.128C26.0083 51.888 25.8243 51.7 25.5763 51.564C25.3283 51.42 25.0163 51.348 24.6403 51.348C24.0803 51.348 23.6403 51.52 23.3203 51.864C23.0003 52.208 22.8403 52.676 22.8403 53.268V55.332C22.8403 55.916 23.0003 56.388 23.3203 56.748C23.6403 57.1 24.0883 57.276 24.6643 57.276C25.2403 57.276 25.6603 57.124 25.9243 56.82C26.1883 56.516 26.3203 56.132 26.3203 55.668V55.548H24.3283V54.204H27.8803V58.5H26.4163V57.696H26.2003C26.1443 57.832 26.0523 57.976 25.9243 58.128C25.8043 58.28 25.6203 58.408 25.3723 58.512C25.1243 58.616 24.7843 58.668 24.3523 58.668ZM29.3936 58.5V50.1H30.9776V58.5H29.3936ZM34.5016 58.5V51.54H32.0536V50.1H38.5336V51.54H36.0856V58.5H34.5016ZM38.2629 58.5L40.4709 50.1H43.2309L45.4389 58.5H43.8069L43.3509 56.652H40.3509L39.8949 58.5H38.2629ZM40.7229 55.188H42.9789L41.9589 51.096H41.7429L40.7229 55.188ZM46.4443 58.5V50.1H48.0283V57.06H51.8683V58.5H46.4443ZM55.6318 58.5V50.1H59.0878C59.6158 50.1 60.0798 50.208 60.4798 50.424C60.8878 50.632 61.2038 50.928 61.4278 51.312C61.6598 51.696 61.7758 52.152 61.7758 52.68V52.848C61.7758 53.368 61.6558 53.824 61.4158 54.216C61.1838 54.6 60.8638 54.9 60.4558 55.116C60.0558 55.324 59.5998 55.428 59.0878 55.428H57.2158V58.5H55.6318ZM57.2158 53.988H58.9318C59.3078 53.988 59.6118 53.884 59.8438 53.676C60.0758 53.468 60.1918 53.184 60.1918 52.824V52.704C60.1918 52.344 60.0758 52.06 59.8438 51.852C59.6118 51.644 59.3078 51.54 58.9318 51.54H57.2158V53.988ZM62.874 58.5V50.1H66.522C67.05 50.1 67.51 50.192 67.902 50.376C68.294 50.56 68.598 50.82 68.814 51.156C69.03 51.492 69.138 51.888 69.138 52.344V52.488C69.138 52.992 69.018 53.4 68.778 53.712C68.538 54.024 68.242 54.252 67.89 54.396V54.612C68.21 54.628 68.458 54.74 68.634 54.948C68.81 55.148 68.898 55.416 68.898 55.752V58.5H67.314V55.98C67.314 55.788 67.262 55.632 67.158 55.512C67.062 55.392 66.898 55.332 66.666 55.332H64.458V58.5H62.874ZM64.458 53.892H66.354C66.73 53.892 67.022 53.792 67.23 53.592C67.446 53.384 67.554 53.112 67.554 52.776V52.656C67.554 52.32 67.45 52.052 67.242 51.852C67.034 51.644 66.738 51.54 66.354 51.54H64.458V53.892ZM70.4561 58.5V50.1H75.8561V51.54H72.0401V53.544H75.5201V54.984H72.0401V57.06H75.9281V58.5H70.4561ZM80.0166 58.668C79.3686 58.668 78.7966 58.552 78.3006 58.32C77.8046 58.088 77.4166 57.756 77.1366 57.324C76.8566 56.892 76.7166 56.372 76.7166 55.764V55.428H78.2766V55.764C78.2766 56.268 78.4326 56.648 78.7446 56.904C79.0566 57.152 79.4806 57.276 80.0166 57.276C80.5606 57.276 80.9646 57.168 81.2286 56.952C81.5006 56.736 81.6366 56.46 81.6366 56.124C81.6366 55.892 81.5686 55.704 81.4326 55.56C81.3046 55.416 81.1126 55.3 80.8566 55.212C80.6086 55.116 80.3046 55.028 79.9446 54.948L79.6686 54.888C79.0926 54.76 78.5966 54.6 78.1806 54.408C77.7726 54.208 77.4566 53.948 77.2326 53.628C77.0166 53.308 76.9086 52.892 76.9086 52.38C76.9086 51.868 77.0286 51.432 77.2686 51.072C77.5166 50.704 77.8606 50.424 78.3006 50.232C78.7486 50.032 79.2726 49.932 79.8726 49.932C80.4726 49.932 81.0046 50.036 81.4686 50.244C81.9406 50.444 82.3086 50.748 82.5726 51.156C82.8446 51.556 82.9806 52.06 82.9806 52.668V53.028H81.4206V52.668C81.4206 52.348 81.3566 52.092 81.2286 51.9C81.1086 51.7 80.9326 51.556 80.7006 51.468C80.4686 51.372 80.1926 51.324 79.8726 51.324C79.3926 51.324 79.0366 51.416 78.8046 51.6C78.5806 51.776 78.4686 52.02 78.4686 52.332C78.4686 52.54 78.5206 52.716 78.6246 52.86C78.7366 53.004 78.9006 53.124 79.1166 53.22C79.3326 53.316 79.6086 53.4 79.9446 53.472L80.2206 53.532C80.8206 53.66 81.3406 53.824 81.7806 54.024C82.2286 54.224 82.5766 54.488 82.8246 54.816C83.0726 55.144 83.1966 55.564 83.1966 56.076C83.1966 56.588 83.0646 57.04 82.8006 57.432C82.5446 57.816 82.1766 58.12 81.6966 58.344C81.2246 58.56 80.6646 58.668 80.0166 58.668ZM84.3779 58.5V50.1H89.7779V51.54H85.9619V53.544H89.4419V54.984H85.9619V57.06H89.8499V58.5H84.3779ZM91.0225 58.5V50.1H94.0345L95.7025 57.42H95.9185V50.1H97.4785V58.5H94.4665L92.7985 51.18H92.5825V58.5H91.0225ZM102.254 58.668C101.214 58.668 100.39 58.38 99.7815 57.804C99.1735 57.22 98.8695 56.388 98.8695 55.308V53.292C98.8695 52.212 99.1735 51.384 99.7815 50.808C100.39 50.224 101.214 49.932 102.254 49.932C103.286 49.932 104.082 50.216 104.642 50.784C105.21 51.344 105.494 52.116 105.494 53.1V53.172H103.934V53.052C103.934 52.556 103.794 52.148 103.514 51.828C103.242 51.508 102.822 51.348 102.254 51.348C101.694 51.348 101.254 51.52 100.934 51.864C100.614 52.208 100.454 52.676 100.454 53.268V55.332C100.454 55.916 100.614 56.384 100.934 56.736C101.254 57.08 101.694 57.252 102.254 57.252C102.822 57.252 103.242 57.092 103.514 56.772C103.794 56.444 103.934 56.036 103.934 55.548V55.332H105.494V55.5C105.494 56.484 105.21 57.26 104.642 57.828C104.082 58.388 103.286 58.668 102.254 58.668ZM106.784 58.5V50.1H112.184V51.54H108.368V53.544H111.848V54.984H108.368V57.06H112.256V58.5H106.784ZM116.476 58.5V50.1H118.06V53.568H121.18V50.1H122.764V58.5H121.18V55.008H118.06V58.5H116.476ZM127.591 58.668C126.903 58.668 126.311 58.544 125.815 58.296C125.327 58.04 124.951 57.68 124.687 57.216C124.431 56.744 124.303 56.188 124.303 55.548V50.1H125.887V55.596C125.887 56.108 126.031 56.512 126.319 56.808C126.615 57.104 127.039 57.252 127.591 57.252C128.143 57.252 128.563 57.104 128.851 56.808C129.147 56.512 129.295 56.108 129.295 55.596V50.1H130.879V55.548C130.879 56.188 130.747 56.744 130.483 57.216C130.227 57.68 129.851 58.04 129.355 58.296C128.867 58.544 128.279 58.668 127.591 58.668ZM132.173 58.5V57.108H133.277V51.492H132.173V50.1H136.493C137.005 50.1 137.449 50.188 137.825 50.364C138.209 50.532 138.505 50.776 138.713 51.096C138.929 51.408 139.037 51.784 139.037 52.224V52.344C139.037 52.728 138.965 53.044 138.821 53.292C138.677 53.532 138.505 53.72 138.305 53.856C138.113 53.984 137.929 54.076 137.753 54.132V54.348C137.929 54.396 138.121 54.488 138.329 54.624C138.537 54.752 138.713 54.94 138.857 55.188C139.009 55.436 139.085 55.76 139.085 56.16V56.28C139.085 56.744 138.977 57.144 138.761 57.48C138.545 57.808 138.245 58.06 137.861 58.236C137.485 58.412 137.045 58.5 136.541 58.5H132.173ZM134.861 57.06H136.349C136.693 57.06 136.969 56.976 137.177 56.808C137.393 56.64 137.501 56.4 137.501 56.088V55.968C137.501 55.656 137.397 55.416 137.189 55.248C136.981 55.08 136.701 54.996 136.349 54.996H134.861V57.06ZM134.861 53.556H136.325C136.653 53.556 136.921 53.472 137.129 53.304C137.345 53.136 137.453 52.904 137.453 52.608V52.488C137.453 52.184 137.349 51.952 137.141 51.792C136.933 51.624 136.661 51.54 136.325 51.54H134.861V53.556Z" fill="#171717"/>
</svg>
