<svg width="60" height="59" viewBox="0 0 60 59" fill="none" xmlns="http://www.w3.org/2000/svg">
<path d="M19.6271 8.75755C20.0672 8.51749 20.5349 8.88681 20.5349 9.38814V42.6474C20.5349 43.1952 20.161 43.6583 19.6767 43.9142C19.6601 43.923 19.6435 43.9319 19.6271 43.9408L13.8614 47.2285C9.83762 49.5348 6.52539 47.6211 6.52539 42.9594V19.0868C6.52539 17.5411 7.62947 15.6274 9.00343 14.8422L19.6271 8.75755Z" fill="#028A4C"/>
<path d="M37.0384 14.9797C37.4563 15.1866 37.7207 15.6127 37.7207 16.079V48.3503C37.7207 49.2544 36.776 49.8479 35.9615 49.4555L25.5341 44.4317C25.1097 44.2272 24.8398 43.7977 24.8398 43.3265V10.915C24.8398 10.0051 25.7956 9.41182 26.611 9.81563L37.0384 14.9797Z" fill="#028A4C"/>
<path d="M54.8926 15.9187V39.7913C54.8926 41.337 53.7885 43.2507 52.4146 44.0358L43.8485 48.9452C43.0306 49.4139 42.0117 48.8235 42.0117 47.8809V15.5269C42.0117 15.0865 42.2478 14.6799 42.6303 14.4615L47.5566 11.6496C51.5804 9.34331 54.8926 11.257 54.8926 15.9187Z" fill="#028A4C"/>
</svg>
