<svg width="76" height="76" viewBox="0 0 76 76" fill="none" xmlns="http://www.w3.org/2000/svg">
<rect width="74.4766" height="74.4766" transform="translate(0.761719 0.939453)" fill="#FCFCFC"/>
<path d="M35.6719 57.5721H28.6897C25.2762 57.5721 22.4833 60.365 22.4833 63.7785V64.5543H19.3801C18.1078 64.5543 17.0527 65.6094 17.0527 66.8817C17.0527 68.154 18.1078 69.2091 19.3801 69.2091H56.6184C57.8907 69.2091 58.9458 68.154 58.9458 66.8817C58.9458 65.6094 57.8907 64.5543 56.6184 64.5543H53.5152V63.7785C53.5152 60.365 50.7223 57.5721 47.3088 57.5721H40.3267V50.4658C39.5509 50.5589 38.7751 50.5899 37.9993 50.5899C37.2235 50.5899 36.4477 50.5589 35.6719 50.4658V57.5721Z" fill="#028A4C"/>
<path d="M58.1057 37.0603C60.1538 36.2845 61.9536 35.0122 63.3811 33.5847C66.2671 30.3884 68.16 26.5715 68.16 22.1029C68.16 17.6343 64.6534 14.1277 60.1848 14.1277H58.447C56.4299 10.0004 52.2096 7.14551 47.3066 7.14551H28.6874C23.7844 7.14551 19.564 10.0004 17.547 14.1277H15.8092C11.3406 14.1277 7.83398 17.6343 7.83398 22.1029C7.83398 26.5715 9.72693 30.3884 12.6129 33.5847C14.0404 35.0122 15.8402 36.2845 17.8883 37.0603C21.1156 45.0044 28.8736 50.5902 37.997 50.5902C47.1204 50.5902 54.8783 45.0044 58.1057 37.0603ZM46.8101 27.1611L44.8861 29.5195C44.5758 29.8609 44.3585 30.5436 44.3896 31.009L44.5758 34.0502C44.6999 35.9121 43.3655 36.8741 41.6277 36.1914L38.8038 35.0742C38.3694 34.9191 37.6246 34.9191 37.1902 35.0742L34.3663 36.1914C32.6285 36.8741 31.2941 35.9121 31.4182 34.0502L31.6044 31.009C31.6355 30.5436 31.4182 29.8609 31.1079 29.5195L29.1839 27.1611C27.9737 25.7336 28.5012 24.151 30.3011 23.6855L33.2491 22.9407C33.7146 22.8166 34.2732 22.3822 34.5214 21.9788L36.1661 19.4341C37.1902 17.8515 38.8038 17.8515 39.8279 19.4341L41.4726 21.9788C41.7208 22.3822 42.2794 22.8166 42.7449 22.9407L45.6929 23.6855C47.4928 24.151 48.0203 25.7336 46.8101 27.1611Z" fill="#028A4C"/>
</svg>
