<svg width="76" height="76" viewBox="0 0 76 76" fill="none" xmlns="http://www.w3.org/2000/svg">
<path d="M35.6719 57.3944H28.6897C25.2762 57.3944 22.4833 60.1873 22.4833 63.6008V64.3766H19.3801C18.1078 64.3766 17.0527 65.4317 17.0527 66.704C17.0527 67.9763 18.1078 69.0314 19.3801 69.0314H56.6184C57.8907 69.0314 58.9458 67.9763 58.9458 66.704C58.9458 65.4317 57.8907 64.3766 56.6184 64.3766H53.5152V63.6008C53.5152 60.1873 50.7223 57.3944 47.3088 57.3944H40.3267V50.2881C39.5509 50.3812 38.7751 50.4122 37.9993 50.4122C37.2235 50.4122 36.4477 50.3812 35.6719 50.2881V57.3944Z" fill="#028A4C"/>
<path d="M58.1057 36.8825C60.1538 36.1067 61.9536 34.8344 63.3811 33.407C66.2671 30.2107 68.16 26.3937 68.16 21.9252C68.16 17.4566 64.6534 13.95 60.1848 13.95H58.447C56.4299 9.82271 52.2096 6.96777 47.3066 6.96777H28.6874C23.7844 6.96777 19.564 9.82271 17.547 13.95H15.8092C11.3406 13.95 7.83398 17.4566 7.83398 21.9252C7.83398 26.3937 9.72693 30.2107 12.6129 33.407C14.0404 34.8344 15.8402 36.1067 17.8883 36.8825C21.1156 44.8267 28.8736 50.4124 37.997 50.4124C47.1204 50.4124 54.8783 44.8267 58.1057 36.8825ZM46.8101 26.9833L44.8861 29.3418C44.5758 29.6831 44.3585 30.3658 44.3896 30.8313L44.5758 33.8724C44.6999 35.7343 43.3655 36.6963 41.6277 36.0136L38.8038 34.8965C38.3694 34.7413 37.6246 34.7413 37.1902 34.8965L34.3663 36.0136C32.6285 36.6963 31.2941 35.7343 31.4182 33.8724L31.6044 30.8313C31.6355 30.3658 31.4182 29.6831 31.1079 29.3418L29.1839 26.9833C27.9737 25.5559 28.5012 23.9733 30.3011 23.5078L33.2491 22.763C33.7146 22.6389 34.2732 22.2044 34.5214 21.801L36.1661 19.2564C37.1902 17.6738 38.8038 17.6738 39.8279 19.2564L41.4726 21.801C41.7208 22.2044 42.2794 22.6389 42.7449 22.763L45.6929 23.5078C47.4928 23.9733 48.0203 25.5559 46.8101 26.9833Z" fill="#028A4C"/>
</svg>
