<svg width="416" height="28" viewBox="0 0 416 28" fill="none" xmlns="http://www.w3.org/2000/svg">
<line x1="0.5" y1="17" x2="174.5" y2="17" stroke="#A4ADB6" stroke-width="2"/>
<line x1="241.5" y1="16" x2="415.5" y2="16" stroke="#A4ADB6" stroke-width="2"/>
<path d="M204.22 20.28C202.5 20.28 201.133 19.8 200.12 18.84C199.107 17.8667 198.6 16.4667 198.6 14.64V11.36C198.6 9.53333 199.107 8.14 200.12 7.18C201.133 6.20667 202.5 5.72 204.22 5.72C205.94 5.72 207.307 6.20667 208.32 7.18C209.347 8.14 209.86 9.53333 209.86 11.36V14.64C209.86 16.4667 209.347 17.8667 208.32 18.84C207.307 19.8 205.94 20.28 204.22 20.28ZM204.22 18.34C205.327 18.34 206.18 18.02 206.78 17.38C207.38 16.7267 207.68 15.84 207.68 14.72V11.28C207.68 10.16 207.38 9.28 206.78 8.64C206.18 7.98667 205.327 7.66 204.22 7.66C203.14 7.66 202.293 7.98667 201.68 8.64C201.067 9.28 200.76 10.16 200.76 11.28V14.72C200.76 15.84 201.067 16.7267 201.68 17.38C202.293 18.02 203.14 18.34 204.22 18.34ZM212.477 20V10.14H214.497V11.3H214.817C214.977 10.8867 215.23 10.5867 215.577 10.4C215.937 10.2 216.377 10.1 216.897 10.1H218.077V11.96H216.817C216.15 11.96 215.604 12.1467 215.177 12.52C214.75 12.88 214.537 13.44 214.537 14.2V20H212.477Z" fill="#090A0B"/>
</svg>
