<svg width="133" height="53" viewBox="0 0 133 53" fill="none" xmlns="http://www.w3.org/2000/svg">
<path d="M6.41679 16.5626L14.2771 8.83831L25.2971 8.93448L33.0215 16.7948L32.9253 27.8148L25.065 35.5391L14.0449 35.443L6.32062 27.5826L6.41679 16.5626Z" fill="#028A4C" stroke="white" stroke-width="1.19616"/>
<path d="M15.1664 11.0294L24.3787 11.1098L30.836 17.6808L30.7556 26.8932L24.1846 33.3505L14.9723 33.2701L8.515 26.6991L8.59539 17.4867L15.1664 11.0294Z" fill="white"/>
<path d="M16.2903 13.8208L23.1996 13.8811L28.0425 18.8093L27.9822 25.7186L23.054 30.5615L16.1447 30.5012L11.3018 25.573L11.3621 18.6637L16.2903 13.8208Z" fill="#028A4C"/>
<path d="M17.4142 16.6121L22.0204 16.6523L25.2491 19.9378L25.2089 24.544L21.9234 27.7726L17.3172 27.7324L14.0886 24.447L14.1288 19.8408L17.4142 16.6121Z" fill="white"/>
<path d="M18.5382 19.3957L20.8413 19.4158L22.4556 21.0585L22.4355 23.3616L20.7927 24.9759L18.4897 24.9558L16.8753 23.3131L16.8954 21.01L18.5382 19.3957Z" fill="#028A4C"/>
<path d="M19.1119 20.7874L20.2634 20.7975L21.0706 21.6189L21.0605 22.7704L20.2391 23.5776L19.0876 23.5675L18.2804 22.7461L18.2905 21.5946L19.1119 20.7874Z" fill="white"/>
<path d="M43.5078 33.624V10.6419H47.3007L57.5864 10.6097C61.7435 10.6097 64.9685 11.5847 67.2614 13.5347C69.5542 15.4847 70.7007 18.3455 70.7007 22.1169C70.7007 25.8883 69.5542 28.749 67.2614 30.699C64.9685 32.649 61.7435 33.624 57.5864 33.624H43.5078ZM57.2328 14.7883H48.6507V29.4455H57.2328C59.9328 29.4455 61.9792 28.8562 63.3721 27.6776C64.765 26.499 65.4614 24.6455 65.4614 22.1169C65.4614 19.5669 64.765 17.7133 63.3721 16.5562C61.9792 15.3776 59.9328 14.7883 57.2328 14.7883ZM73.9242 33.624V10.6419H93.1778C95.5564 10.6419 97.3992 11.2419 98.7064 12.4419C100.035 13.6419 100.699 15.4633 100.699 17.9062C100.699 20.349 100.035 22.1705 98.7064 23.3705C97.3992 24.5705 95.5564 25.1705 93.1778 25.1705H79.0671V33.624H73.9242ZM92.5671 14.8205H79.0671V20.9597L92.5671 20.9919C93.51 20.9919 94.2278 20.7562 94.7207 20.2847C95.235 19.8133 95.4921 19.0205 95.4921 17.9062C95.4921 16.7705 95.235 15.9776 94.7207 15.5276C94.2278 15.0562 93.51 14.8205 92.5671 14.8205ZM103.901 33.624V10.6419H109.044V20.0597H125.244V10.6419H130.387V33.624H125.244V24.2383H109.044V33.624H103.901Z" fill="white"/>
<path d="M12.6941 52V51.1964H13.7441V45.3036H12.6941V44.5H15.6191C16.6048 44.5 17.3655 44.75 17.9012 45.25C18.4441 45.75 18.7155 46.5179 18.7155 47.5536V48.9464C18.7155 49.9893 18.4441 50.7607 17.9012 51.2607C17.3655 51.7536 16.6048 52 15.6191 52H12.6941ZM14.6441 51.1857H15.6191C16.3476 51.1857 16.8976 51.0071 17.2691 50.65C17.6405 50.2929 17.8262 49.7393 17.8262 48.9893V47.5214C17.8262 46.7571 17.6405 46.2 17.2691 45.85C16.8976 45.5 16.3476 45.325 15.6191 45.325H14.6441V51.1857ZM20.1521 52V44.5H21.0521V52H20.1521ZM25.3822 52.15C24.8251 52.15 24.3322 52.0357 23.9036 51.8071C23.4822 51.5714 23.1501 51.2286 22.9072 50.7786C22.6715 50.3286 22.5536 49.7714 22.5536 49.1071V47.3929C22.5536 46.4 22.8179 45.6464 23.3465 45.1321C23.8751 44.6107 24.5858 44.35 25.4786 44.35C26.3644 44.35 27.0394 44.5929 27.5036 45.0786C27.9679 45.5643 28.2001 46.2143 28.2001 47.0286V47.0821H27.3108V47.0071C27.3108 46.65 27.2465 46.3321 27.1179 46.0536C26.9894 45.775 26.7894 45.5571 26.5179 45.4C26.2465 45.2357 25.9001 45.1536 25.4786 45.1536C24.8429 45.1536 24.3465 45.35 23.9894 45.7429C23.6322 46.1286 23.4536 46.6714 23.4536 47.3714V49.1286C23.4536 49.8286 23.6322 50.375 23.9894 50.7679C24.3465 51.1536 24.8465 51.3464 25.4894 51.3464C26.1179 51.3464 26.5786 51.1679 26.8715 50.8107C27.1715 50.4536 27.3215 49.9786 27.3215 49.3857V49.2036H25.0501V48.4321H28.2001V52H27.3858V51.1857H27.2358C27.1572 51.3429 27.0465 51.4964 26.9036 51.6464C26.7608 51.7964 26.5679 51.9179 26.3251 52.0107C26.0822 52.1036 25.7679 52.15 25.3822 52.15ZM29.841 52V44.5H30.741V52H29.841ZM34.2997 52V45.3143H31.889V44.5H37.6104V45.3143H35.1997V52H34.2997ZM37.3607 52L39.675 44.5H41.2607L43.575 52H42.6428L42.0643 50.1036H38.8714L38.2928 52H37.3607ZM39.0964 49.2893H41.8286L40.5428 45.0464H40.3928L39.0964 49.2893ZM44.6987 52V44.5H45.5987V51.1857H49.3916V52H44.6987ZM53.0169 52V44.5H55.8884C56.3384 44.5 56.7384 44.5893 57.0884 44.7679C57.4455 44.9393 57.7277 45.1857 57.9348 45.5071C58.1419 45.8286 58.2455 46.2179 58.2455 46.675V46.8143C58.2455 47.2643 58.1384 47.6536 57.9241 47.9821C57.7169 48.3036 57.4348 48.55 57.0777 48.7214C56.7205 48.8929 56.3241 48.9786 55.8884 48.9786H53.9169V52H53.0169ZM53.9169 48.1643H55.7919C56.2705 48.1643 56.6491 48.0464 56.9277 47.8107C57.2062 47.5679 57.3455 47.2286 57.3455 46.7929V46.6857C57.3455 46.25 57.2062 45.9143 56.9277 45.6786C56.6562 45.4357 56.2777 45.3143 55.7919 45.3143H53.9169V48.1643ZM59.4518 52V44.5H62.4839C62.9482 44.5 63.3554 44.5821 63.7054 44.7464C64.0625 44.9036 64.3411 45.1321 64.5411 45.4321C64.7411 45.725 64.8411 46.0786 64.8411 46.4929V46.6107C64.8411 47.1036 64.7232 47.4929 64.4875 47.7786C64.2518 48.0643 63.9732 48.2571 63.6518 48.3571V48.5071C63.9089 48.5143 64.1197 48.6 64.2839 48.7643C64.4554 48.9214 64.5411 49.1607 64.5411 49.4821V52H63.6518V49.5893C63.6518 49.375 63.5911 49.2107 63.4697 49.0964C63.3554 48.9821 63.1804 48.925 62.9447 48.925H60.3518V52H59.4518ZM60.3518 48.1107H62.3982C62.8911 48.1107 63.2697 47.9929 63.5339 47.7571C63.8054 47.5143 63.9411 47.1786 63.9411 46.75V46.675C63.9411 46.2464 63.8089 45.9143 63.5447 45.6786C63.2804 45.4357 62.8982 45.3143 62.3982 45.3143H60.3518V48.1107ZM66.211 52V44.5H70.8289V45.3143H67.111V47.8214H70.5289V48.6357H67.111V51.1857H70.8824V52H66.211ZM74.7447 52.15C74.2018 52.15 73.7161 52.0536 73.2875 51.8607C72.859 51.6679 72.5197 51.3786 72.2697 50.9929C72.0268 50.6 71.9054 50.1107 71.9054 49.525V49.3H72.7947V49.525C72.7947 50.1464 72.9768 50.6107 73.3411 50.9179C73.7054 51.2179 74.1733 51.3679 74.7447 51.3679C75.3304 51.3679 75.7768 51.2357 76.084 50.9714C76.3911 50.7071 76.5447 50.375 76.5447 49.975C76.5447 49.6964 76.4733 49.475 76.3304 49.3107C76.1947 49.1464 76.0018 49.0143 75.7518 48.9143C75.5018 48.8071 75.209 48.7143 74.8733 48.6357L74.3161 48.4964C73.8804 48.3821 73.4947 48.2429 73.159 48.0786C72.8233 47.9143 72.559 47.7 72.3661 47.4357C72.1804 47.1643 72.0875 46.8179 72.0875 46.3964C72.0875 45.975 72.1911 45.6107 72.3983 45.3036C72.6125 44.9964 72.909 44.7607 73.2875 44.5964C73.6733 44.4321 74.1161 44.35 74.6161 44.35C75.1233 44.35 75.5768 44.4393 75.9768 44.6179C76.384 44.7893 76.7018 45.0464 76.9304 45.3893C77.1661 45.725 77.284 46.15 77.284 46.6643V47.1143H76.3947V46.6643C76.3947 46.3 76.3161 46.0071 76.159 45.7857C76.009 45.5643 75.7983 45.4 75.5268 45.2929C75.2625 45.1857 74.959 45.1321 74.6161 45.1321C74.1233 45.1321 73.7268 45.2429 73.4268 45.4643C73.1268 45.6786 72.9768 45.9857 72.9768 46.3857C72.9768 46.65 73.0411 46.8643 73.1697 47.0286C73.2983 47.1929 73.4804 47.3286 73.7161 47.4357C73.9518 47.5357 74.234 47.625 74.5625 47.7036L75.1197 47.8429C75.5554 47.9357 75.9447 48.0643 76.2875 48.2286C76.6375 48.3857 76.9161 48.6036 77.1233 48.8821C77.3304 49.1536 77.434 49.5107 77.434 49.9536C77.434 50.3964 77.3233 50.7821 77.1018 51.1107C76.8804 51.4393 76.5661 51.6964 76.159 51.8821C75.759 52.0607 75.2875 52.15 74.7447 52.15ZM78.8191 52V44.5H83.437V45.3143H79.7191V47.8214H83.137V48.6357H79.7191V51.1857H83.4906V52H78.8191ZM84.8564 52V44.5H86.6028L89.2171 51.4321H89.3564V44.5H90.2457V52H88.4992L85.8957 45.0571H85.7457V52H84.8564ZM94.682 52.15C93.7892 52.15 93.0785 51.8929 92.5499 51.3786C92.0213 50.8571 91.757 50.1 91.757 49.1071V47.3929C91.757 46.4 92.0213 45.6464 92.5499 45.1321C93.0785 44.6107 93.7892 44.35 94.682 44.35C95.5678 44.35 96.2463 44.5964 96.7178 45.0893C97.1963 45.5821 97.4356 46.2571 97.4356 47.1143V47.1679H96.5463V47.0821C96.5463 46.5179 96.3928 46.0571 96.0856 45.7C95.7856 45.3357 95.3178 45.1536 94.682 45.1536C94.0463 45.1536 93.5499 45.35 93.1928 45.7429C92.8356 46.1286 92.657 46.6714 92.657 47.3714V49.1286C92.657 49.8286 92.8356 50.375 93.1928 50.7679C93.5499 51.1536 94.0463 51.3464 94.682 51.3464C95.3178 51.3464 95.7856 51.1679 96.0856 50.8107C96.3928 50.4464 96.5463 49.9821 96.5463 49.4179V49.2464H97.4356V49.3857C97.4356 50.2429 97.1963 50.9179 96.7178 51.4107C96.2463 51.9036 95.5678 52.15 94.682 52.15ZM98.8456 52V44.5H103.463V45.3143H99.7456V47.8214H103.163V48.6357H99.7456V51.1857H103.517V52H98.8456ZM107.635 52V44.5H108.535V47.8321H112.049V44.5H112.949V52H112.049V48.6464H108.535V52H107.635ZM117.377 52.15C116.82 52.15 116.334 52.05 115.92 51.85C115.505 51.65 115.184 51.3536 114.955 50.9607C114.727 50.5607 114.612 50.0714 114.612 49.4929V44.5H115.502V49.5036C115.502 50.1179 115.666 50.5786 115.995 50.8857C116.323 51.1929 116.784 51.3464 117.377 51.3464C117.97 51.3464 118.43 51.1929 118.759 50.8857C119.087 50.5786 119.252 50.1179 119.252 49.5036V44.5H120.152V49.4929C120.152 50.0714 120.037 50.5607 119.809 50.9607C119.58 51.3536 119.255 51.65 118.834 51.85C118.42 52.05 117.934 52.15 117.377 52.15ZM121.448 52V51.1964H122.498V45.3036H121.448V44.5H125.209C125.645 44.5 126.03 44.5786 126.366 44.7357C126.709 44.8929 126.973 45.1143 127.159 45.4C127.352 45.6786 127.448 46.0071 127.448 46.3857V46.4714C127.448 46.8214 127.38 47.1107 127.245 47.3393C127.109 47.5607 126.948 47.7357 126.763 47.8643C126.577 47.9857 126.395 48.075 126.216 48.1321V48.2821C126.395 48.325 126.58 48.4107 126.773 48.5393C126.966 48.6607 127.127 48.8357 127.255 49.0643C127.391 49.2929 127.459 49.5821 127.459 49.9321V50.0393C127.459 50.4464 127.359 50.8 127.159 51.1C126.966 51.3929 126.698 51.6179 126.355 51.775C126.02 51.925 125.634 52 125.198 52H121.448ZM123.398 51.1857H125.102C125.573 51.1857 125.934 51.075 126.184 50.8536C126.434 50.6321 126.559 50.3321 126.559 49.9536V49.8571C126.559 49.4786 126.434 49.1786 126.184 48.9571C125.934 48.7357 125.573 48.625 125.102 48.625H123.398V51.1857ZM123.398 47.8107H125.134C125.563 47.8107 125.905 47.7036 126.163 47.4893C126.42 47.2679 126.548 46.9786 126.548 46.6214V46.5143C126.548 46.15 126.42 45.8607 126.163 45.6464C125.913 45.425 125.57 45.3143 125.134 45.3143H123.398V47.8107Z" fill="white"/>
</svg>
