<svg width="82" height="82" viewBox="0 0 82 82" fill="none" xmlns="http://www.w3.org/2000/svg">
<path d="M13.951 33.437C12.1212 33.7013 11.3897 35.9499 12.7138 37.2402L24.4388 48.6661C24.9641 49.178 25.204 49.9155 25.0804 50.6385L22.3308 66.7176C22.0193 68.5394 23.9325 69.9274 25.5677 69.0657L39.9612 61.4807C40.6117 61.1379 41.3894 61.1379 42.0399 61.4807L56.4333 69.0657C58.0685 69.9274 59.9817 68.5394 59.6702 66.7176L56.9206 50.6385C56.797 49.9155 57.0369 49.178 57.5622 48.6661L69.2872 37.2402C70.6113 35.9499 69.8798 33.7013 68.05 33.437L51.9151 31.1064C51.1897 31.0016 50.5622 30.547 50.2366 29.8904L42.9978 15.2933C42.1786 13.6413 39.8224 13.6413 39.0032 15.2933L31.7645 29.8904C31.4388 30.547 30.8113 31.0016 30.0859 31.1064L13.951 33.437Z" fill="#02864A"/>
</svg>
