<svg width="92" height="91" viewBox="0 0 92 91" fill="none" xmlns="http://www.w3.org/2000/svg">
<path d="M59.1759 28.2354C59.1759 35.5128 53.2765 41.4123 45.9991 41.4123C38.7217 41.4123 32.8223 35.5128 32.8223 28.2354C32.8223 20.9581 38.7217 15.0586 45.9991 15.0586C53.2765 15.0586 59.1759 20.9581 59.1759 28.2354Z" fill="#028A4C"/>
<path opacity="0.8" d="M74.2323 28.2362C74.2323 33.4344 70.0183 37.6483 64.8202 37.6483C59.6222 37.6483 55.4082 33.4344 55.4082 28.2362C55.4082 23.0381 59.6222 18.8242 64.8202 18.8242C70.0183 18.8242 74.2323 23.0381 74.2323 28.2362Z" fill="#028A4C"/>
<path opacity="0.8" d="M17.7676 28.2362C17.7676 33.4344 21.9815 37.6483 27.1796 37.6483C32.3777 37.6483 36.5916 33.4344 36.5916 28.2362C36.5916 23.0381 32.3777 18.8242 27.1796 18.8242C21.9815 18.8242 17.7676 23.0381 17.7676 28.2362Z" fill="#028A4C"/>
<path d="M68.5859 62.1182C68.5859 69.3956 58.4725 75.2951 45.9971 75.2951C33.5216 75.2951 23.4082 69.3956 23.4082 62.1182C23.4082 54.8409 33.5216 48.9414 45.9971 48.9414C58.4725 48.9414 68.5859 54.8409 68.5859 62.1182Z" fill="#028A4C"/>
<path opacity="0.8" d="M83.6439 62.1191C83.6439 67.3171 76.9015 71.5311 68.5846 71.5311C60.2678 71.5311 53.5254 67.3171 53.5254 62.1191C53.5254 56.921 60.2678 52.707 68.5846 52.707C76.9015 52.707 83.6439 56.921 83.6439 62.1191Z" fill="#028A4C"/>
<path opacity="0.8" d="M8.35352 62.1191C8.35352 67.3171 15.0958 71.5311 23.4128 71.5311C31.7298 71.5311 38.472 67.3171 38.472 62.1191C38.472 56.921 31.7298 52.707 23.4128 52.707C15.0958 52.707 8.35352 56.921 8.35352 62.1191Z" fill="#028A4C"/>
</svg>
